<svg xmlns="http://www.w3.org/2000/svg" xmlns:xlink="http://www.w3.org/1999/xlink" width="24" height="24" viewBox="0 0 24 24"><defs><filter id="hd-293" x="-8%" y="-8%" width="116%" height="116%" color-interpolation-filters="sRGB"><feTurbulence type="fractalNoise" baseFrequency="0.028 0.034" numOctaves="2" seed="293" result="noise"/><feDisplacementMap in="SourceGraphic" in2="noise" scale="0.192" xChannelSelector="R" yChannelSelector="G"/></filter></defs><g filter="url(#hd-293)" stroke-linecap="round" stroke-linejoin="round"><g fill="none" stroke="currentColor" stroke-linejoin="round" stroke-width="2"><path fill="currentColor" d="M14.707 1.293L20.7071 7.2929C20.8946 7.4805 21 7.7348 21 8.0001L21 12C21 12.5523 20.5523 13 20 13L11 13L11 22C11 22.5523 10.5523 23 10 23L4 23C3.4477 23 3 22.5523 3 22L3 2C3 1.4477 3.4477 1 4 1L14 1C14.2652 1 14.5195 1.1054 14.707 1.293ZM15 8L20 8L14 2L14 7C14 7.5523 14.4477 8 15 8Z" stroke="none"/><path d="M17 15L17 23M13 19L21 19"/></g></g></svg>