<svg xmlns="http://www.w3.org/2000/svg" xmlns:xlink="http://www.w3.org/1999/xlink"  width="24" height="24" viewBox="0 0 24 24"><defs><filter id="neon-3sduta" x="-35%" y="-35%" width="170%" height="170%" color-interpolation-filters="sRGB"><feGaussianBlur stdDeviation="0.600" result="b"/><feFlood flood-color="#79f7ff" flood-opacity=".9" result="c"/><feComposite in="c" in2="b" operator="in" result="g"/><feMerge><feMergeNode in="g"/><feMergeNode in="g"/><feMergeNode in="SourceGraphic"/></feMerge></filter></defs><g filter="url(#neon-3sduta)"><path fill="currentColor" d="m10.21 6.21l.79-.8V10a1 1 0 0 0 2 0V5.41l.79.8a1 1 0 0 0 1.42 0a1 1 0 0 0 0-1.42l-2.5-2.5a1 1 0 0 0-.33-.21a1 1 0 0 0-.76 0a1 1 0 0 0-.33.21l-2.5 2.5a1 1 0 0 0 1.42 1.42M18 7.56A1 1 0 1 0 16.56 9a6.45 6.45 0 1 1-9.12 0A1 1 0 1 0 6 7.56a8.46 8.46 0 1 0 12 0"/></g></svg>