<svg xmlns="http://www.w3.org/2000/svg" xmlns:xlink="http://www.w3.org/1999/xlink"  width="24" height="24" viewBox="0 0 24 24"><defs><linearGradient id="glass-89vbcx" x1="0" y1="0" x2="1" y2="1"><stop offset="0" stop-color="#ffffff" stop-opacity=".42"/><stop offset=".5" stop-color="#8fd3ff" stop-opacity=".17"/><stop offset="1" stop-color="#b7ff8b" stop-opacity=".12"/></linearGradient></defs><rect x="0" y="0" width="24" height="24" rx="4.800" fill="url(#glass-89vbcx)" stroke="#ffffff" stroke-opacity=".32" stroke-width="0.192"/><g transform="translate(2.880 2.880) scale(.76)"><g fill="none" stroke="currentColor" stroke-linecap="round" stroke-linejoin="round" stroke-width="1.5"><path d="M9 8v6a2 2 0 0 0 2 2h2a2 2 0 0 0 2-2V8"/><path d="M2.707 10.295a2.41 2.41 0 0 0 0 3.41l7.588 7.588a2.41 2.41 0 0 0 3.41 0l7.588-7.588a2.41 2.41 0 0 0 0-3.41l-7.588-7.588a2.41 2.41 0 0 0-3.41 0z"/></g></g></svg>