<svg xmlns="http://www.w3.org/2000/svg" xmlns:xlink="http://www.w3.org/1999/xlink" width="32" height="32" viewBox="0 0 32 32"><defs><filter id="hd-215" x="-8%" y="-8%" width="116%" height="116%" color-interpolation-filters="sRGB"><feTurbulence type="fractalNoise" baseFrequency="0.030 0.040" numOctaves="2" seed="215" result="noise"/><feDisplacementMap in="SourceGraphic" in2="noise" scale="0.192" xChannelSelector="R" yChannelSelector="G"/></filter></defs><g filter="url(#hd-215)" stroke-linecap="round" stroke-linejoin="round"><path fill="currentColor" d="m15.976 2l-5 6h10zm0 28l5-6h-10zm-5-11h-2v-8h-2v1h-2v2h2v5h-2v2h6zm14-2c1.102 0 2-.897 2-2v-2c0-1.103-.898-2-2-2h-4v2h4v2h-2c-1.103 0-2 .897-2 2v4h6v-2h-4v-2zm-6 0v-2h-6v2z"/></g></svg>