<svg xmlns="http://www.w3.org/2000/svg" xmlns:xlink="http://www.w3.org/1999/xlink"  width="24" height="24" viewBox="0 0 24 24"><defs><filter id="sticker-7kc6bm" x="-30%" y="-30%" width="160%" height="160%" color-interpolation-filters="sRGB"><feMorphology in="SourceAlpha" operator="dilate" radius="0.840" result="d"/><feFlood flood-color="#ffffff" result="w"/><feComposite in="w" in2="d" operator="in" result="outline"/><feMerge><feMergeNode in="outline"/><feMergeNode in="SourceGraphic"/></feMerge></filter></defs><g filter="url(#sticker-7kc6bm)"><g fill="currentColor"><path d="M4 12a8 8 0 1 0 16 0z" opacity=".5"/><path fill-rule="evenodd" d="M15.53 7.53a.75.75 0 0 1-1.06 0l-1.72-1.72V14a.75.75 0 0 1-1.5 0V5.81L9.53 7.53a.75.75 0 0 1-1.06-1.06l3-3a.75.75 0 0 1 1.06 0l3 3a.75.75 0 0 1 0 1.06" clip-rule="evenodd"/></g></g></svg>