<svg xmlns="http://www.w3.org/2000/svg" xmlns:xlink="http://www.w3.org/1999/xlink"  width="24" height="24" viewBox="0 0 24 24"><defs><linearGradient id="glass-12d7iq" x1="0" y1="0" x2="1" y2="1"><stop offset="0" stop-color="#ffffff" stop-opacity=".42"/><stop offset=".5" stop-color="#8fd3ff" stop-opacity=".17"/><stop offset="1" stop-color="#b7ff8b" stop-opacity=".12"/></linearGradient></defs><rect x="0" y="0" width="24" height="24" rx="4.800" fill="url(#glass-12d7iq)" stroke="#ffffff" stroke-opacity=".32" stroke-width="0.192"/><g transform="translate(2.880 2.880) scale(.76)"><g fill="currentColor"><path d="M3 3h2v12H3zm16 0h2v12h-2zm-8 0h2v2h-2zM9 5h2v2H9zM5 5h2v2H5z"/><path d="M3 3h2v2H3zm4 4h2v2H7zm6-2h2v2h-2zm2 2h2v2h-2zm2-2h2v2h-2zM3 15h18v2H3zm0 4h18v2H3z"/></g></g></svg>