<svg xmlns="http://www.w3.org/2000/svg" xmlns:xlink="http://www.w3.org/1999/xlink" width="80" height="80" viewBox="0 0 80 80"><defs><filter id="hd-499" x="-8%" y="-8%" width="116%" height="116%" color-interpolation-filters="sRGB"><feTurbulence type="fractalNoise" baseFrequency="0.028 0.034" numOctaves="2" seed="499" result="noise"/><feDisplacementMap in="SourceGraphic" in2="noise" scale="0.720" xChannelSelector="R" yChannelSelector="G"/></filter></defs><g filter="url(#hd-499)" stroke-linecap="round" stroke-linejoin="round"><g fill="none" stroke="currentColor" stroke-linecap="round" stroke-linejoin="round"><path d="M16 18a2 2 0 0 1 2-2h28a2 2 0 0 1 2 2v28a2 2 0 0 1-2 2H18a2 2 0 0 1-2-2z"/><path d="M22 23a1 1 0 0 1 1-1h18a1 1 0 0 1 1 1v18a1 1 0 0 1-1 1H23a1 1 0 0 1-1-1z"/><path d="M32 48v14a2 2 0 0 0 2 2h28a2 2 0 0 0 2-2V34a2 2 0 0 0-2-2H48"/></g></g></svg>