<svg xmlns="http://www.w3.org/2000/svg" xmlns:xlink="http://www.w3.org/1999/xlink"  width="24" height="24" viewBox="0 0 24 24"><defs><filter id="neon-6y0mfy" x="-35%" y="-35%" width="170%" height="170%" color-interpolation-filters="sRGB"><feGaussianBlur stdDeviation="0.600" result="b"/><feFlood flood-color="#79f7ff" flood-opacity=".9" result="c"/><feComposite in="c" in2="b" operator="in" result="g"/><feMerge><feMergeNode in="g"/><feMergeNode in="g"/><feMergeNode in="SourceGraphic"/></feMerge></filter></defs><g filter="url(#neon-6y0mfy)"><path fill="currentColor" d="M22 14h-1c0-3.87-3.13-7-7-7h-1V5.73A2 2 0 1 0 10 4c0 .74.4 1.39 1 1.73V7h-1c-3.87 0-7 3.13-7 7H2c-.55 0-1 .45-1 1v3c0 .55.45 1 1 1h1v1a2 2 0 0 0 2 2h14c1.11 0 2-.89 2-2v-1h1c.55 0 1-.45 1-1v-3c0-.55-.45-1-1-1M9.79 16.5C9.4 15.62 8.53 15 7.5 15s-1.9.62-2.29 1.5c-.13-.31-.21-.64-.21-1a2.5 2.5 0 0 1 5 0c0 .36-.08.69-.21 1m9 0c-.39-.88-1.29-1.5-2.29-1.5s-1.9.62-2.29 1.5c-.13-.31-.21-.64-.21-1a2.5 2.5 0 0 1 5 0c0 .36-.08.69-.21 1"/></g></svg>